# xmcd
# Track frame offsets:
# 150
# 17135
# 27386
# 41783
# 57202
# 71773
# 91679
# 116624
# 133797
# 152978
# 165758
# 178730
#
# Disc length: 2652 seconds
# Revision: 0
# Processed by: cddbd v1.5PL3 Copyright (c) Steve Scherf et al.
# Submitted via: VisiTrax 2.9.9.202 - For more info visit www.synapsa.com
#
DISCID=9c0a5a0c
DTITLE=AEROSMITH - HONKIN' ON BOBO
DYEAR=2004
DGENRE=
TTITLE0=ROAD RUNNER
TTITLE1=SHAME - SHAME - SHAME
TTITLE2=EYESIGHT TO THE BLIND
TTITLE3=BABY - PLEASE DON'T GO
TTITLE4=NEVER LOVED A GIRL
TTITLE5=BACK BACK TRAIN
TTITLE6=YOU GOTTA MOVE
TTITLE7=THE GRIND
TTITLE8=I'M READY
TTITLE9=TO TEMPERATURE
TTITLE10=STOP MESSIN' AROUND
TTITLE11=JESUS IS ON THE MAIN LINE
EXTD=
EXTT0=
EXTT1=
EXTT2=
EXTT3=
EXTT4=
EXTT5=
EXTT6=
EXTT7=
EXTT8=
EXTT9=
EXTT10=
EXTT11=
PLAYORDER=
